<svg xmlns="http://www.w3.org/2000/svg" width="40" height="40" fill="none"><path stroke="#321C64" stroke-width="2" d="M15 10.833c2.025.556 3.716 1.667 5 1.667 1.275 0 2.994-1.118 5-1.667 1.49-.407 13.333-3.333 13.333 5.834C38.333 28.333 32.5 30 29.167 30 25.833 30 22.5 25.833 20 25.833S14.167 30 10.833 30C7.5 30 1.667 28.333 1.667 16.667c0-9.167 11.852-6.24 13.333-5.834Z" clip-rule="evenodd"/><path stroke="#9059FF" stroke-linecap="round" stroke-linejoin="round" stroke-width="2" d="M24.167 19.167s.833-.834 2.5-.834c1.666 0 3.333.834 3.333.834S28.333 20 26.667 20c-1.667 0-2.5-.833-2.5-.833ZM10 19.246s1.667-.913 3.333-.913c1.667 0 2.5.913 2.5.913S15 20 13.333 20C11.667 20 10 19.246 10 19.246Z" clip-rule="evenodd"/></svg>